<svg xmlns="http://www.w3.org/2000/svg" width="53" height="53" viewBox="0 0 53 53" fill="none"><path d="M40.8697 7.88672H36.1151V10.6715C36.1151 11.55 35.3996 12.2659 34.5207 12.2659H18.4854C17.6069 12.2659 16.8909 11.5504 16.8909 10.6715V7.88672H12.1363C11.1019 7.88672 10.2656 8.72298 10.2656 9.75741V47.1294C10.2656 48.157 11.1019 49.0001 12.1363 49.0001H40.7922C41.8693 49.0001 42.741 48.1215 42.741 47.0513V9.75793C42.741 8.72349 41.904 7.88672 40.8697 7.88672ZM34.2373 38.5551H30.1842C29.766 38.5551 29.3622 38.3992 29.0505 38.1369L27.9237 40.7941C27.6471 41.4462 27.0097 41.8715 26.301 41.8715C25.5711 41.8644 24.9334 41.4322 24.6643 40.7662L23.148 37.0176L22.914 37.4923C22.6092 38.0947 22.0071 38.4702 21.3339 38.4702H18.6908C18.393 38.4702 18.1594 38.2294 18.1594 37.9388C18.1594 37.6411 18.3934 37.4074 18.6908 37.4074H21.3339C21.6033 37.4074 21.8441 37.2588 21.9645 37.0176L22.7227 35.487C22.8219 35.3029 23.0132 35.1753 23.2186 35.1964C23.431 35.2036 23.6155 35.3379 23.6933 35.5293L25.6489 40.3692C25.7553 40.6314 26.0103 40.8013 26.2937 40.8085C26.5771 40.8085 26.8323 40.6383 26.9387 40.3763L28.4478 36.8264C28.5327 36.635 28.7169 36.5074 28.9226 36.5074C29.1351 36.5003 29.3264 36.6139 29.4185 36.8052L29.5532 37.0958C29.6736 37.3366 29.9215 37.4928 30.1839 37.4928H34.2369C34.5347 37.4928 34.7682 37.7268 34.7682 38.0241C34.7686 38.3144 34.5347 38.5551 34.2373 38.5551ZM37.1283 27.3803H15.7995C15.5017 27.3803 15.2681 27.1463 15.2681 26.849C15.2681 26.5583 15.5021 26.3176 15.7995 26.3176H37.1283C37.4261 26.3176 37.6597 26.5583 37.6597 26.849C37.6597 27.1467 37.4257 27.3803 37.1283 27.3803ZM37.1283 21.9807H15.7995C15.5017 21.9807 15.2681 21.7399 15.2681 21.4493C15.2681 21.1516 15.5021 20.9181 15.7995 20.9181H37.1283C37.4261 20.9181 37.6597 21.152 37.6597 21.4493C37.6597 21.7399 37.4257 21.9807 37.1283 21.9807ZM37.1283 16.5743H15.7995C15.5017 16.5743 15.2681 16.3336 15.2681 16.043C15.2681 15.7525 15.5021 15.5117 15.7995 15.5117H37.1283C37.4261 15.5117 37.6597 15.7525 37.6597 16.043C37.6597 16.3332 37.4257 16.5743 37.1283 16.5743Z" fill="#F7A582" stroke-width="1px" fill-opacity="1" stroke-opacity="1"></path><path d="M35.0511 6.52961V10.6679C35.0511 10.9657 34.8103 11.1993 34.5198 11.1993H18.4845C18.1867 11.1993 17.9531 10.9653 17.9531 10.6679V6.52961C17.9531 6.23904 18.1871 5.99826 18.4845 5.99826H24.0256C24.2667 4.85747 25.2871 4 26.4989 4C27.7178 4 28.731 4.85741 28.979 5.99826H34.5201C34.8106 5.99826 35.0511 6.23904 35.0511 6.52961Z" fill="#F7A582" stroke-width="1px" fill-opacity="1" stroke-opacity="1"></path></svg>